<?xml version="1.0" encoding="UTF-8"?>
<svg xmlns="http://www.w3.org/2000/svg" width="22" height="22" viewBox="0 0 22 22" fill="none">
  <g id="021-24-hours 1" clip-path="url(#clip0_298_6661)">
    <g id="Group">
      <g id="Group_2">
        <path id="Vector" d="M17.1935 5.63942L20.9613 5.91391L21.2358 2.14616L19.9445 2.0521L19.8366 3.53447C17.7681 1.29662 14.8555 0 11.7637 0C5.69819 0 0.763672 4.93461 0.763672 11C0.763672 17.0653 5.69828 22 11.7637 22C15.4314 22 18.8469 20.1756 20.9001 17.1196L19.8254 16.3976C18.0132 19.095 14.9994 20.7053 11.7637 20.7053C6.41212 20.7054 2.05832 16.3515 2.05832 11C2.05832 5.64845 6.41208 1.29465 11.7637 1.29465C14.5158 1.29465 17.1068 2.46021 18.9351 4.46818L17.2875 4.34817L17.1935 5.63942Z" fill="#4B5563"></path>
      </g>
    </g>
    <g id="Group_3">
      <g id="Group_4">
        <path id="Vector_2" d="M6.36044 12.2157C6.36044 11.7995 6.77668 11.5294 7.36805 11.23C8.04704 10.8868 8.52163 10.4926 8.52163 9.64556C8.52163 8.64525 7.87908 8.02466 6.7255 8.02466C5.73249 8.02466 4.99507 8.49925 4.67379 8.86431L5.39665 9.6383C5.65945 9.36816 6.0976 9.06149 6.56488 9.06149C6.94451 9.06149 7.19278 9.26594 7.19278 9.66022C7.19278 10.2735 6.58675 10.5363 5.96616 10.8138C4.91476 11.2884 4.65918 11.9163 4.65918 13.2671H8.52898V12.2157H6.36044Z" fill="#4B5563"></path>
      </g>
    </g>
    <g id="Group_5">
      <g id="Group_6">
        <path id="Vector_3" d="M12.2673 11.1277V8.07568H11.4642L9.05469 11.1277V12.1718H11.0991V13.2597H12.2673V12.1718H12.9099V11.1277H12.2673ZM11.2305 11.1277H10.2156L11.2305 9.82799V11.1277Z" fill="#4B5563"></path>
      </g>
    </g>
    <g id="Group_7">
      <g id="Group_8">
        <path id="Vector_4" d="M16.0713 9.36078C15.5091 9.36078 15.0199 9.62362 14.7425 10.0763V7.93701H13.5742V13.2671H14.7425V11.0694C14.8885 10.6605 15.2755 10.3904 15.5529 10.3904C15.8888 10.3904 16.1078 10.6167 16.1078 11.1132V13.2671H17.2761V10.8139C17.2761 10.1494 17.1008 9.36078 16.0713 9.36078Z" fill="#4B5563"></path>
      </g>
    </g>
  </g>
  <defs>
    <clipPath id="clip0_298_6661">
      <rect width="22" height="22" fill="white"></rect>
    </clipPath>
  </defs>
</svg>
