<?xml version="1.0" encoding="UTF-8"?>
<svg xmlns="http://www.w3.org/2000/svg" width="22" height="22" viewBox="0 0 22 22" fill="none">
  <g id="017-delivery-truck 1" clip-path="url(#clip0_298_6656)">
    <g id="Group">
      <path id="Vector" d="M22 10.0906L17.7311 4.62632H15.3112V2.79297H0V16.9154H2.5957C2.79619 18.2115 3.91939 19.207 5.27085 19.207C6.6223 19.207 7.7455 18.2115 7.946 16.9154H14.054C14.2545 18.2115 15.3777 19.207 16.7292 19.207C18.0806 19.207 19.2038 18.2115 19.4043 16.9154H22V10.0906ZM18.1471 16.5C18.1471 17.2819 17.511 17.918 16.7292 17.918C15.9473 17.918 15.3112 17.2819 15.3112 16.5C15.3112 15.7181 15.9473 15.082 16.7292 15.082C17.511 15.082 18.1471 15.7181 18.1471 16.5ZM6.68882 16.5C6.68882 17.2819 6.05271 17.918 5.27085 17.918C4.48899 17.918 3.85288 17.2819 3.85288 16.5C3.85288 15.7181 4.48899 15.082 5.27085 15.082C6.05271 15.082 6.68882 15.7181 6.68882 16.5ZM5.27085 13.793C4.08388 13.793 3.07364 14.5612 2.70931 15.6263H1.28906V11.4154H10.1111L11.3961 6.91797H1.28906V4.08203H14.0221V15.6263H7.83239C7.46805 14.5612 6.45782 13.793 5.27085 13.793ZM1.28911 10.1263V8.20703H9.68722L9.13885 10.1263H1.28911ZM16.7292 13.793C16.2095 13.793 15.7239 13.9404 15.3112 14.1953V10.957H20.7109V15.6263H19.2907C18.9264 14.5612 17.9161 13.793 16.7292 13.793ZM15.3112 9.66797V5.91538H17.1023L20.0341 9.66797H15.3112Z" fill="#4B5563"></path>
    </g>
  </g>
  <defs>
    <clipPath id="clip0_298_6656">
      <rect width="22" height="22" fill="white"></rect>
    </clipPath>
  </defs>
</svg>
