<svg width="22" height="30" viewBox="0 0 22 30" fill="none" xmlns="http://www.w3.org/2000/svg">
<g clip-path="url(#clip0_304_9812)">
<path d="M18.7782 7.2218C16.7005 5.14421 13.9382 4 11 4C8.0618 4 5.29947 5.14421 3.2218 7.2218C1.14421 9.29947 0 12.0618 0 15C0 17.9382 1.14421 20.7005 3.2218 22.7782C5.29947 24.8558 8.0618 26 11 26C13.9382 26 16.7005 24.8558 18.7782 22.7782C20.8558 20.7005 22 17.9382 22 15C22 12.0618 20.8558 9.29947 18.7782 7.2218ZM17.8667 21.8667C16.0325 23.7008 13.5939 24.7109 11 24.7109C8.40611 24.7109 5.9675 23.7008 4.13334 21.8667C2.29917 20.0325 1.28906 17.5939 1.28906 15C1.28906 12.4061 2.29917 9.9675 4.13334 8.13334C5.9675 6.29917 8.40611 5.28906 11 5.28906C13.5939 5.28906 16.0325 6.29917 17.8667 8.13334C19.7008 9.9675 20.7109 12.4061 20.7109 15C20.7109 17.5939 19.7008 20.0325 17.8667 21.8667Z" fill="#4B5563"/>
<path d="M12.9336 20.4915V12.9492H8.20703V14.4577H9.06641V20.4915H8.16406V22H13.75V20.4915H12.9336ZM11.6445 20.4915H10.3555V14.4577H11.6445V20.4915Z" fill="#4B5563"/>
<path d="M11 7C9.93382 7 9.06641 7.94013 9.06641 9.0957C9.06641 10.2513 9.93382 11.1914 11 11.1914C12.0662 11.1914 12.9336 10.2513 12.9336 9.0957C12.9336 7.94013 12.0662 7 11 7ZM11 9.79427C10.6446 9.79427 10.3555 9.48089 10.3555 9.0957C10.3555 8.71051 10.6446 8.39714 11 8.39714C11.3554 8.39714 11.6445 8.71051 11.6445 9.0957C11.6445 9.48089 11.3554 9.79427 11 9.79427Z" fill="#4B5563"/>
</g>
<defs>
<clipPath id="clip0_304_9812">
<rect width="22" height="30" fill="white"/>
</clipPath>
</defs>
</svg>
