<?xml version="1.0" encoding="UTF-8"?>
<svg xmlns="http://www.w3.org/2000/svg" id="Capa_1" version="1.1" viewBox="0 0 512 512">
  <!-- Generator: Adobe Illustrator 29.0.0, SVG Export Plug-In . SVG Version: 2.1.0 Build 186)  -->
  <defs>
    <style>
      .st0 {
        fill: none;
        stroke: #000;
        stroke-miterlimit: 10;
        stroke-width: 30px;
      }
    </style>
  </defs>
  <line class="st0" x1="86.2" y1="185.4" x2="116.5" y2="237.8"></line>
  <path class="st0" d="M110,144.3c0,26.2-21.3,47.5-47.5,47.5s-47.5-21.3-47.5-47.5,21.3-47.5,47.5-47.5,47.5,21.3,47.5,47.5Z"></path>
  <circle class="st0" cx="131.5" cy="263.8" r="30"></circle>
  <circle class="st0" cx="251.5" cy="263.8" r="30" transform="translate(-49.2 469.8) rotate(-80.8)"></circle>
  <line class="st0" x1="221.5" y1="263.8" x2="161.5" y2="263.8"></line>
  <line class="st0" x1="402" y1="367.7" x2="341.5" y2="367.7"></line>
  <circle class="st0" cx="311.5" cy="367.7" r="30"></circle>
  <line class="st0" x1="402" y1="367.7" x2="341.5" y2="367.7"></line>
  <line class="st0" x1="402" y1="367.7" x2="341.5" y2="367.7"></line>
  <path class="st0" d="M402,367.7c0-26.2,21.3-47.5,47.5-47.5s47.5,21.3,47.5,47.5-21.3,47.5-47.5,47.5-47.5-21.3-47.5-47.5Z"></path>
  <line class="st0" x1="266.5" y1="289.8" x2="296.5" y2="341.7"></line>
  <line class="st0" x1="296.8" y1="185.4" x2="266.5" y2="237.8"></line>
  <path class="st0" d="M368,144.3c0,26.2-21.3,47.5-47.5,47.5s-47.5-21.3-47.5-47.5,21.3-47.5,47.5-47.5,47.5,21.3,47.5,47.5Z"></path>
</svg>
