<?xml version="1.0" encoding="UTF-8"?>
<svg xmlns="http://www.w3.org/2000/svg" id="Image" version="1.1" viewBox="0 0 512 512">
  <!-- Generator: Adobe Illustrator 29.0.0, SVG Export Plug-In . SVG Version: 2.1.0 Build 186)  -->
  <path d="M187.8,200l13.7-24h26.8c10.6,0,10.6-16,0-16h-31.4c-2.9,0-5.5,1.5-6.9,4l-16,28c-5.2,9.1,8.7,17,13.9,7.9Z"></path>
  <path d="M187.8,320l13.7-24h26.8c10.6,0,10.6-16,0-16h-31.4c-2.9,0-5.5,1.5-6.9,4l-16,28c-5.3,9.3,8.7,17.1,13.9,7.9h0Z"></path>
  <path d="M277.4,252c-5.3,9.3,8.7,17.1,13.9,7.9l13.7-24h26.8c10.6,0,10.6-16,0-16h-31.4c-2.9,0-5.5,1.5-6.9,4l-16,28Z"></path>
  <path d="M137.1,320l34.3,60c1.4,2.5,4.1,4,6.9,4h68.6c2.9,0,5.5-1.5,6.9-4l32-56h63.9c2.9,0,5.5-1.5,6.9-4l34.3-60c1.4-2.5,1.4-5.5,0-7.9l-34.3-60c-1.4-2.5-4.1-4-6.9-4h-63.9l-32-56c-1.4-2.5-4.1-4-6.9-4h-68.6c-2.9,0-5.5,1.5-6.9,4l-34.3,60c-1.4,2.5-1.4,5.5,0,7.9l32,56-32,56c-1.4,2.5-1.4,5.5,0,7.9h0ZM374.8,256l-29.7,52h-59.3l-29.7-52,29.7-52h59.3l29.7,52ZM182.9,144h59.3l29.7,52-29.7,52h-59.3l-29.7-52,29.7-52ZM182.9,264h59.3l29.7,52-29.7,52h-59.3l-29.7-52,29.7-52Z"></path>
  <path d="M442.9,301c-4.2-1.2-8.7,1.3-9.9,5.5-22.4,78.6-95.2,133.5-177,133.5s-182.1-80.7-183.9-180.6l18.3,18.3c7.4,7.4,18.9-3.7,11.3-11.3l-32-32c-3.1-3.1-8.2-3.1-11.3,0l-32,32c-7.5,7.5,3.8,18.8,11.3,11.3l18.4-18.4c1.8,108.8,90.7,196.8,199.9,196.8s168-59.7,192.4-145.1c1.2-4.2-1.3-8.7-5.5-9.9h0Z"></path>
  <path d="M474.3,234.3l-18.4,18.4c-1.7-108.8-90.7-196.8-199.9-196.8S91.1,112.5,65,196.5c-3.1,10.1,12.1,14.9,15.3,4.8,24-77.3,94.7-129.3,175.7-129.3s182.1,80.7,183.9,180.6l-18.3-18.3c-7.5-7.5-18.8,3.8-11.3,11.3l32,32c3.2,3.2,8.3,3.1,11.3,0l32-32c7.5-7.5-3.8-18.8-11.3-11.3h0Z"></path>
</svg>
