<?xml version="1.0" encoding="UTF-8"?>
<svg xmlns="http://www.w3.org/2000/svg" id="Warstwa_1" version="1.1" viewBox="0 0 512 512">
  <!-- Generator: Adobe Illustrator 29.0.0, SVG Export Plug-In . SVG Version: 2.1.0 Build 186)  -->
  <path d="M416,342.2c67.4-89,50-215.7-39-283.2C288-8.4,161.2,9.1,93.8,98c-67.4,89-50,215.7,39,283.2,56.8,43,132,53,198,26.2-2.1,6.5-3.3,13.3-3.4,20.1,0,36.2,29.3,65.5,65.5,65.5s65.5-29.3,65.5-65.5c0-28.6-24.6-63.6-42.4-85.3ZM255.2,408.2c-103.6,0-187.6-84-187.6-187.6,0-103.6,84-187.6,187.6-187.6,103.6,0,187.6,84,187.6,187.6.2,39.8-12.5,78.6-36.2,110.7-4.9-5.5-8.2-8.9-8.8-9.5-2.7-2.8-7.1-2.8-9.9,0,0,0,0,0,0,0-1.8,1.8-32.5,33.1-49.4,66.9-25.9,12.9-54.4,19.6-83.3,19.5h0ZM392.9,479c-28.4,0-51.5-23.1-51.5-51.5,0-31.3,37.7-75.4,51.5-90.5,13.8,15.1,51.5,59.2,51.5,90.5,0,28.4-23.1,51.4-51.5,51.5Z"></path>
  <path d="M431.3,411.8c-3-8-6.7-15.7-11.3-22.9-2-3.3-6.3-4.4-9.6-2.4-3.3,2-4.4,6.3-2.4,9.6,4,6.4,7.4,13.2,10,20.3,1,2.8,3.6,4.7,6.6,4.7.8,0,1.6-.1,2.3-.4,3.6-1.3,5.6-5.3,4.3-8.9,0,0,0,0,0,0h0Z"></path>
  <path d="M191.6,270.5l-7.2,7.2c-3.3,3.3-3.3,8.6,0,11.9,1.6,1.6,3.7,2.4,5.9,2.4,2.3,0,4.4-.9,6-2.5l7.1-7c2.3,1.7,4.7,3.3,7.2,4.7,14.9,9.2,32,14.5,49.5,15.4,9.1,0,18-2.2,26-6.6,30.1-16.6,46.1-63.9,50.7-148.9.2-2.4-.7-4.7-2.4-6.4-1.7-1.6-3.9-2.5-6.3-2.5-55,1.9-125.4,12.6-147.7,52.8-11.3,20.4-8.8,45.1,7.3,73.5,1.2,2,2.4,3.9,3.8,5.7ZM195.2,199.5c13.8-24.7,57.9-40.2,124.3-43.8-4.9,71.8-18.3,112.9-41.5,125.7-5.5,3-11.6,4.5-17.9,4.4-14.6-1-28.7-5.5-41.2-13.3-1.1-.7-2.2-1.4-3.2-2.2l1.7-1.7h34.6c4.7.5,8.9-2.8,9.4-7.5.5-4.7-2.8-8.9-7.5-9.4-.6,0-1.3,0-1.9,0h-17.9l16.9-16.9,33.4,1.3c4.5,0,8.2-3.6,8.4-8.1.2-4.7-3.4-8.6-8.1-8.8l-17.4-.5,28.6-28.5c3.2-3.3,3.2-8.6,0-12-1.6-1.6-3.8-2.5-6-2.5-2.2,0-4.4.9-5.9,2.5l-14.8,14.8-2.3-16.7c-.5-4.2-4.2-7.4-8.4-7.3h-1.1c-4.6.6-7.8,4.8-7.2,9.4,0,0,0,0,0,0l3.9,29.4-15.6,15.7-3.3-19.7c-.7-4-4.2-7-8.3-7h-1.5c-4.6.8-7.7,5.1-6.9,9.7,0,0,0,0,0,0l5.4,31.5-20.2,20.2-1.3-1.9c-13-22.9-15.5-41.9-7.2-56.8Z"></path>
</svg>
